<svg xmlns="http://www.w3.org/2000/svg" width="1024" height="1024" viewBox="-40.42296314239502 26.43000030517578 1105.25 971.1600341796875" class="colorable-icon reset-top-left-margin" data-export-recolorable-svg="true" overflow="visible" xmlns:xlink="http://www.w3.org/1999/xlink" fill="rgb(0, 0, 0)" stroke="none"><g fill="none" stroke="url(&quot;#theme-accent-gradient-linear&quot;) rgb(129, 82, 225)" stroke-width="45" stroke-linecap="round" stroke-linejoin="round"><path d="M 511.621,217.593 C 451.426,153.712 433.504,137.092 414.25,121.663 C 392.23,107.177 370.242,95.634 346.478,86.06 C 320.35,78.522 291.678,73.427 263.268,71.43 C 232.547,72.983 206.9,76.848 182.072,83.229 C 156.223,92.808 130.892,105.654 106.776,121.452 C 84.291,139.875 63.939,160.723 46.927,182.544 C 32.341,206.497 21.029,231.292 12.753,256.566 C 6.908,284.991 4.245,313.351 4.61,341.974 C 8.181,373.487 15.088,404.586 23.695,430.044 C 36.35,457.402 50.738,481.417 68.627,505.52 L 88.829,527.76" data-line="nan" stroke-width="45.0" fill="none" stroke="url(&quot;#theme-accent-gradient-linear&quot;) rgb(129, 82, 225)"/><path d="M 587.409,140.323 C 606.927,124.203 626.522,110.723 648.964,98.162 C 670.444,88.791 692.756,81.578 716.104,76.441 C 743.777,73.05 768.29,72.347 794.674,74.307 C 820.978,78.742 846.02,85.456 869.3,94.273 C 891.433,105.398 912.741,118.913 934.84,136.495 C 952.537,153.87 968.807,173.427 983.83,196.048 C 995.229,217.658 1004.148,239.409 1011.456,263.611 C 1016.826,289.868 1019.59,316.108 1019.827,340.45 C 1017.386,367.75 1012.983,391.391 1005.864,416.386 C 996.743,439.83 985.023,463.107 971.787,484.103 Q 957.108,503.362 939.134,522.742" data-line="nan" stroke-width="45.0" fill="none" stroke="url(&quot;#theme-accent-gradient-linear&quot;) rgb(129, 82, 225)"/><path d="M 511.621,217.593 L 587.409,140.323" data-line="1.0" stroke-width="45.0" fill="none" stroke="url(&quot;#theme-accent-gradient-linear&quot;) rgb(129, 82, 225)"/><path d="M 88.829,527.76 L 511.39,952.59" data-line="2.0" stroke-width="45.0" fill="none" stroke="url(&quot;#theme-accent-gradient-linear&quot;) rgb(129, 82, 225)"/><path d="M 939.134,522.742 L 511.39,952.59" data-line="4.0" stroke-width="45.0" fill="none" stroke="url(&quot;#theme-accent-gradient-linear&quot;) rgb(129, 82, 225)"/></g></svg>