<svg xmlns="http://www.w3.org/2000/svg" width="1024" height="1024" viewBox="176.3419952392578 -40.65588092803955 671.4886474609375 1105.6558837890625" class="colorable-icon reset-top-left-margin" data-export-recolorable-svg="true" overflow="visible" xmlns:xlink="http://www.w3.org/1999/xlink" fill="rgb(0, 0, 0)" stroke="none"><g fill="none" stroke="rgb(255, 255, 255)" stroke-width="45" stroke-linecap="round" stroke-linejoin="round"><path d="M 752.009,19.858 C 735.209,11.525 722.318,7.351 713.209,5.463 Q 699.078,4.263 659.186,4.35" data-line="nan" stroke-width="45.0" fill="none" stroke="rgb(255, 255, 255)"/><path d="M 321.059,5.342 C 309.642,6.026 300.767,7.736 286.99,12.236 C 278.731,15.994 268.232,22.183 259.201,28.936 C 250.951,36.655 242.337,46.862 231.185,65.184 C 226.738,76.188 223.541,87.585 221.519,104.173 L 221.342,141.296" data-line="nan" stroke-width="45.0" fill="none" stroke="rgb(255, 255, 255)"/><path d="M 221.414,910.63 C 221.657,921.896 223.343,935.377 226.31,947.062 C 230.739,958.383 237.064,970.017 243.208,978.87 C 253.564,990.44 261.764,997.622 271.102,1004.237 C 280.211,1009.369 289.544,1013.383 304.372,1017.836 Q 319.094,1019.771 359.051,1019.957" data-line="nan" stroke-width="45.0" fill="none" stroke="rgb(255, 255, 255)"/><path d="M 692.597,1020.0 C 715.532,1018.74 728.331,1015.698 738.831,1011.936 C 749.93,1006.498 759.295,1000.329 770.159,991.326 C 778.219,982.854 784.93,974.017 790.984,964.0 C 796.556,951.479 799.681,941.393 802.416,924.709 L 802.658,884.817" data-line="nan" stroke-width="45.0" fill="none" stroke="rgb(255, 255, 255)"/><path d="M 411.924,133.909 L 605.861,133.481" data-line="0.0" stroke-width="45.0" fill="none" stroke="rgb(255, 255, 255)"/><path d="M 221.342,141.296 L 221.414,910.63" data-line="3.0" stroke-width="45.0" fill="none" stroke="rgb(255, 255, 255)"/><path d="M 359.051,1019.957 L 692.597,1020.0" data-line="5.0" stroke-width="45.0" fill="none" stroke="rgb(255, 255, 255)"/><path d="M 659.186,4.35 L 321.059,5.342" data-line="6.0" stroke-width="45.0" fill="none" stroke="rgb(255, 255, 255)"/><path d="M 802.658,884.817 L 802.639,109.785" data-line="7.0" stroke-width="45.0" fill="none" stroke="rgb(255, 255, 255)"/><path d="M 802.8289355112394,109.78610712241829 A 103.6535734551145,103.6535734551145 0 0,0 751.9454164065285,19.965502072214676" data-line="8.0" stroke-width="45.0" fill="none" stroke="rgb(255, 255, 255)"/></g></svg>