<svg width="110" height="24" viewBox="0 0 110 24" xmlns="http://www.w3.org/2000/svg" xmlns:xlink="http://www.w3.org/1999/xlink" fill="none" overflow="hidden"><defs><clipPath id="clip0_2177_3035"><rect x="0" y="0" width="109.716" height="24" fill="#FFFFFF"/></clipPath></defs><g clip-path="url(#clip0_2177_3035)"><path d="M87.831 24C87.291 24 86.8514 23.5604 86.8514 23.0204L86.8514 0.979592C86.8514 0.439592 87.291 0 87.831 0L88.5841 0C88.9037 0 89.2037 0.156735 89.3861 0.417551L97.8229 12.4727C97.9147 12.6037 98.0641 12.682 98.2245 12.682 98.3849 12.682 98.5343 12.6037 98.6261 12.4727L107.063 0.417551C107.247 0.15551 107.547 0 107.865 0L108.618 0C109.158 0 109.598 0.439592 109.598 0.979592L109.598 19.4057C109.598 19.9457 109.158 20.3853 108.618 20.3853L108.016 20.3853C107.476 20.3853 107.036 19.9457 107.036 19.4057L107.036 6.40898C107.036 6.19592 106.898 6.00612 106.694 5.94245 106.645 5.92653 106.596 5.91918 106.546 5.91918 106.389 5.91918 106.239 5.99388 106.146 6.12735L99.2519 15.9269C99.0682 16.1878 98.7694 16.3433 98.451 16.3433L97.9612 16.3433C97.6417 16.3433 97.3416 16.1878 97.1592 15.9257L90.3033 6.14327C90.2102 6.0098 90.0584 5.93388 89.9016 5.93388 89.8527 5.93388 89.8025 5.94123 89.7547 5.95714 89.5514 6.02082 89.4119 6.21061 89.4119 6.42367L89.4119 23.0204C89.4119 23.5604 88.9723 24 88.4323 24L87.8298 24 87.831 24Z" fill="#FFFFFF"/><path d="M28.884 24C28.5987 24 28.3269 23.8751 28.1408 23.6584L20.9469 15.2853C20.6983 14.9963 20.6408 14.5849 20.8 14.2384 20.9591 13.8918 21.3081 13.6678 21.6902 13.6678L22.933 13.6678C26.2612 13.6678 28.7702 11.2739 28.7702 8.1 28.7702 4.92612 26.2612 2.49551 22.933 2.49551L17.9995 2.49551C17.7289 2.49551 17.5098 2.71469 17.5098 2.98531L17.5098 19.4057C17.5098 19.9457 17.0702 20.3853 16.5302 20.3853L15.9277 20.3853C15.3877 20.3853 14.9481 19.9457 14.9481 19.4057L14.9481 0.979592C14.9481 0.439592 15.3877 0 15.9277 0L22.933 0C27.5849 0 31.3698 3.63306 31.3698 8.1 31.3698 11.5641 29.0604 14.6363 25.622 15.7445 25.4653 15.7947 25.344 15.9208 25.3 16.0788 25.2559 16.2367 25.2938 16.4069 25.4028 16.5318L30.4881 22.3776C30.7391 22.6665 30.7991 23.078 30.64 23.4269 30.4808 23.7747 30.1318 24 29.7485 24L28.8828 24 28.884 24Z" fill="#FFFFFF"/><path d="M44.8527 3.6147 44.2502 3.6147C43.7092 3.6147 43.2706 4.05327 43.2706 4.59429L43.2706 23.0204C43.2706 23.5614 43.7092 24 44.2502 24L44.8527 24C45.3937 24 45.8323 23.5614 45.8323 23.0204L45.8323 4.59429C45.8323 4.05327 45.3937 3.6147 44.8527 3.6147Z" fill="#FFFFFF"/><path d="M16.2302 24C15.5236 24 14.9493 23.4257 14.9493 22.7191 14.9493 22.0126 15.5236 21.4383 16.2302 21.4383 16.9367 21.4383 17.511 22.0126 17.511 22.7191 17.511 23.4257 16.9367 24 16.2302 24Z" fill="#FFFFFF"/><path d="M108.318 24C107.611 24 107.037 23.4257 107.037 22.7191 107.037 22.0126 107.611 21.4383 108.318 21.4383 109.024 21.4383 109.599 22.0126 109.599 22.7191 109.599 23.4257 109.024 24 108.318 24Z" fill="#FFFFFF"/><path d="M44.5514 2.56163C43.8449 2.56163 43.2706 1.98735 43.2706 1.28082 43.2706 0.574286 43.8449 0 44.5514 0 45.258 0 45.8323 0.574286 45.8323 1.28082 45.8323 1.98735 45.258 2.56163 44.5514 2.56163Z" fill="#FFFFFF"/><path d="M1.46656 0 0.864113 0C0.3231 0-0.115479 0.438578-0.115479 0.979592L-0.115479 23.0204C-0.115479 23.5614 0.3231 24 0.864113 24L1.46656 24C2.00758 24 2.44615 23.5614 2.44615 23.0204L2.44615 0.979592C2.44615 0.438578 2.00758 0 1.46656 0Z" fill="#FFFFFF"/><path d="M75.9645 24C75.258 24 74.6837 23.4257 74.6837 22.7191 74.6837 22.0126 75.258 21.4383 75.9645 21.4383 76.6711 21.4383 77.2454 22.0126 77.2454 22.7191 77.2454 23.4257 76.6711 24 75.9645 24Z" fill="#FFFFFF"/><path d="M56.8294 24C56.4988 24 56.1927 23.8347 56.0102 23.558 55.829 23.2812 55.7984 22.9347 55.9294 22.631L65.4584 0.591429C65.6139 0.232653 65.9665 0 66.3572 0L66.8849 0C67.2755 0 67.6282 0.231429 67.7837 0.58898L75.7808 19.0151C75.9131 19.3188 75.8825 19.6653 75.7012 19.942 75.52 20.2188 75.2139 20.3841 74.8821 20.3841L74.189 20.3841C73.7972 20.3841 73.4433 20.1514 73.289 19.7902L72.0914 16.9959C72.0143 16.8159 71.8368 16.6996 71.6408 16.6996L65.7927 16.6996C65.4633 16.6996 65.1584 16.5355 64.9759 16.2612 64.7935 15.9869 64.7616 15.6429 64.889 15.3392L65.1155 14.8029C65.2686 14.4392 65.6237 14.2041 66.018 14.2041L70.1568 14.2041C70.3208 14.2041 70.4751 14.122 70.5657 13.9837 70.6563 13.8465 70.6723 13.6727 70.6074 13.5208L67.0698 5.24082C66.9927 5.06082 66.8151 4.94327 66.6192 4.94327 66.4233 4.94327 66.2457 5.06082 66.1686 5.24082L58.4065 23.4037C58.2523 23.7649 57.8984 23.9988 57.5053 23.9988L56.827 23.9988 56.8294 24Z" fill="#FFFFFF"/><path d="M56.8294 24C56.4988 24 56.1927 23.8347 56.0102 23.558 55.829 23.2812 55.7984 22.9347 55.9294 22.631L65.4584 0.591429C65.6139 0.232653 65.9665 0 66.3572 0L66.8849 0C67.2045 0 67.5057 0.156735 67.6882 0.418776 67.8719 0.680816 67.9147 1.01755 67.8045 1.31755L67.5412 2.03388C67.5351 2.04857 67.529 2.06449 67.5229 2.08041L58.409 23.4049C58.2547 23.7661 57.9008 24 57.5078 24L56.8294 24Z" fill="#FFFFFF"/><path d="M87.831 24C87.291 24 86.8514 23.5604 86.8514 23.0204L86.8514 0.979592C86.8514 0.439592 87.291 0 87.831 0L88.5841 0C88.9037 0 89.2037 0.156735 89.3861 0.417551L97.8229 12.4727C97.9147 12.6037 98.0641 12.682 98.2245 12.682 98.3849 12.682 98.5343 12.6037 98.6261 12.4727L107.063 0.417551C107.247 0.15551 107.547 0 107.865 0L108.618 0C108.994 0 109.331 0.209388 109.496 0.546122 109.662 0.882857 109.623 1.27714 109.396 1.57592L108.811 2.33878C108.811 2.33878 108.804 2.3498 108.799 2.35469L99.2506 15.9269C99.067 16.1878 98.7682 16.3433 98.4498 16.3433L97.96 16.3433C97.6404 16.3433 97.3404 16.1878 97.158 15.9257L90.3021 6.14327C90.209 6.0098 90.0572 5.93388 89.9004 5.93388 89.8514 5.93388 89.8012 5.94123 89.7535 5.95714 89.5502 6.02082 89.4106 6.21061 89.4106 6.42367L89.4106 23.0204C89.4106 23.5604 88.971 24 88.431 24L87.8286 24 87.831 24Z" fill="#FFFFFF"/><path d="M28.884 24C28.5987 24 28.3269 23.8751 28.1408 23.6584L20.9469 15.2853C20.6983 14.9963 20.6408 14.5849 20.7999 14.2384 20.9591 13.8918 21.3081 13.6678 21.6902 13.6678L22.933 13.6678C26.2612 13.6678 28.7702 11.2739 28.7702 8.1 28.7702 4.92612 26.2612 2.49551 22.933 2.49551L16.5302 2.49551C16.2902 2.49551 16.0587 2.40735 15.8787 2.24694L15.2763 1.71061C14.975 1.44245 14.8685 1.00776 15.013 0.630612 15.1563 0.253469 15.5248 0 15.9289 0L22.9342 0C27.5861 0 31.371 3.63306 31.371 8.1 31.371 11.5641 29.0616 14.6363 25.6232 15.7445 25.4665 15.7947 25.3453 15.9208 25.3012 16.0788 25.2571 16.2367 25.2951 16.4069 25.404 16.5318L30.4893 22.3776C30.7404 22.6665 30.8004 23.078 30.6412 23.4269 30.482 23.7747 30.133 24 29.7497 24L28.884 24Z" fill="#FFFFFF"/></g></svg>