<svg xmlns="http://www.w3.org/2000/svg" width="1024" height="1024" viewBox="-40.93300008773804 -4.555000305175781 1105.7229614257812 1033.44677734375" class="colorable-icon reset-top-left-margin" data-export-recolorable-svg="true" overflow="visible" xmlns:xlink="http://www.w3.org/1999/xlink" fill="rgb(0, 0, 0)" stroke="none"><g fill="none" stroke="rgb(255, 255, 255)" stroke-width="45" stroke-linecap="round" stroke-linejoin="round"><path d="M 640.374,192.187 C 593.17,191.127 547.656,191.859 538.779,194.838 Q 534.644,198.002 525.037,209.224" data-line="nan" stroke-width="45.0" fill="none" stroke="rgb(255, 255, 255)"/><path d="M 649.746,316.997 C 638.561,323.631 629.175,326.705 623.935,327.28 C 552.193,327.148 541.873,324.885 536.901,322.157 C 532.571,318.245 529.176,313.542 525.779,303.362 Q 525.166,293.33 525.037,209.224" data-line="nan" stroke-width="45.0" fill="none" stroke="rgb(255, 255, 255)"/><path d="M 883.247,326.476 C 891.887,313.207 894.012,307.709 895.563,296.835 C 895.525,219.873 893.782,209.118 891.202,203.682 C 887.241,198.861 882.186,195.073 876.771,192.738 C 871.477,191.538 801.637,191.475 781.59,193.608" data-line="nan" stroke-width="45.0" fill="none" stroke="rgb(255, 255, 255)"/><path d="M 883.247,326.476 C 796.555,326.833 786.059,323.946 781.187,320.83 C 777.066,316.711 774.156,311.875 772.348,306.82 Q 771.115,296.691 771.167,209.121" data-line="nan" stroke-width="45.0" fill="none" stroke="rgb(255, 255, 255)"/><path d="M 250.399,576.929 C 257.847,565.224 261.337,555.447 261.608,470.025 C 259.75,461.405 257.738,456.848 252.819,450.679 Q 247.014,447.405 237.537,445.301" data-line="nan" stroke-width="45.0" fill="none" stroke="rgb(255, 255, 255)"/><path d="M 160.829,445.438 Q 152.889,446.607 139.528,451.873" data-line="nan" stroke-width="45.0" fill="none" stroke="rgb(255, 255, 255)"/><path d="M 161.281,577.124 C 151.626,575.364 145.536,572.126 140.295,565.706 C 136.734,556.714 135.84,544.209 135.917,469.688 L 139.528,451.873" data-line="nan" stroke-width="45.0" fill="none" stroke="rgb(255, 255, 255)"/><path d="M 643.58,576.163 C 649.215,562.879 651.392,553.399 651.788,548.033 C 651.507,471.014 650.742,465.778 648.876,460.488 C 645.677,455.425 641.209,451.104 636.065,448.045 C 630.752,446.281 620.44,445.277 546.472,445.85 Q 540.951,447.088 525.07,453.313" data-line="nan" stroke-width="45.0" fill="none" stroke="rgb(255, 255, 255)"/><path d="M 891.287,447.794 C 864.716,445.43 798.263,445.448 785.702,448.033 L 773.587,453.856" data-line="nan" stroke-width="45.0" fill="none" stroke="rgb(255, 255, 255)"/><path d="M 891.287,447.794 C 894.907,467.378 895.605,476.155 895.515,547.981 C 895.07,553.327 892.724,562.987 886.797,576.462" data-line="nan" stroke-width="45.0" fill="none" stroke="rgb(255, 255, 255)"/><path d="M 141.907,817.67 C 138.876,809.729 137.153,796.604 137.213,724.224 C 137.942,717.252 140.892,708.499 142.996,705.075 C 147.474,700.716 153.393,697.947 163.677,696.678 C 240.798,697.184 250.469,700.901 254.936,704.191 Q 260.002,711.264 262.091,720.845" data-line="nan" stroke-width="45.0" fill="none" stroke="rgb(255, 255, 255)"/><path d="M 261.941,803.348 C 259.774,813.81 255.646,819.647 247.601,824.77 C 238.847,827.539 166.402,827.854 145.488,824.788" data-line="nan" stroke-width="45.0" fill="none" stroke="rgb(255, 255, 255)"/><path d="M 534.293,701.942 C 528.501,710.64 525.439,719.83 525.021,723.363 C 525.241,806.336 527.176,813.357 532.591,820.683 Q 539.688,825.675 549.131,827.99" data-line="nan" stroke-width="45.0" fill="none" stroke="rgb(255, 255, 255)"/><path d="M 626.426,827.906 C 634.416,826.343 638.873,824.577 645.48,819.844 C 649.34,814.022 650.563,810.661 652.083,803.579 C 652.643,795.37 652.567,728.596 651.051,715.513 C 649.0,709.819 645.226,704.379 638.828,699.801 L 629.279,696.924" data-line="nan" stroke-width="45.0" fill="none" stroke="rgb(255, 255, 255)"/><path d="M 895.526,813.057 C 887.427,821.542 883.418,824.116 873.651,827.408 C 866.277,828.086 796.85,827.978 786.372,825.673 C 779.026,821.222 774.28,814.807 772.558,810.668 L 771.022,803.169" data-line="nan" stroke-width="45.0" fill="none" stroke="rgb(255, 255, 255)"/><path d="M 771.057,721.023 C 773.426,711.114 778.146,704.74 782.357,701.512 C 791.551,697.954 873.087,697.211 881.25,699.527 L 894.228,707.312" data-line="nan" stroke-width="45.0" fill="none" stroke="rgb(255, 255, 255)"/><path d="M 508.097,983.625 C 492.586,983.049 479.995,981.569 471.085,979.745 C 459.802,976.22 450.334,971.978 438.831,965.141 C 429.965,958.042 421.434,949.56 415.02,941.416 C 408.384,930.769 403.485,920.391 399.656,909.091 Q 396.747,890.996 396.213,857.524" data-line="nan" stroke-width="45.0" fill="none" stroke="rgb(255, 255, 255)"/><path d="M 396.379,145.089 C 396.713,132.411 398.892,119.77 402.401,108.025 C 408.218,95.197 416.079,82.743 422.657,74.892 C 433.745,64.18 444.051,56.831 461.861,47.949 C 474.163,43.909 484.125,41.841 506.389,40.505 L 567.894,40.501" data-line="nan" stroke-width="45.0" fill="none" stroke="rgb(255, 255, 255)"/><path d="M 901.047,40.445 C 928.868,41.73 941.571,44.293 954.817,48.609 C 967.322,54.608 978.397,61.945 988.69,71.115 C 996.912,80.235 1003.624,89.436 1009.391,99.847 C 1013.976,111.355 1017.734,124.991 1019.707,140.96 L 1019.659,182.013" data-line="nan" stroke-width="45.0" fill="none" stroke="rgb(255, 255, 255)"/><path d="M 1019.659,182.013 L 1019.625,258.854" data-line="nan" stroke-width="45.0" fill="none" stroke="rgb(255, 255, 255)"/><path d="M 1019.79,430.253 L 1019.568,507.286" data-line="nan" stroke-width="45.0" fill="none" stroke="rgb(255, 255, 255)"/><path d="M 1019.639,824.965 C 1019.889,879.087 1018.521,896.786 1016.31,907.343 C 1011.931,920.225 1004.743,935.303 1001.127,940.227" data-line="nan" stroke-width="45.0" fill="none" stroke="rgb(255, 255, 255)"/><path d="M 99.069,310.702 C 76.407,312.149 67.038,314.112 57.034,317.699 C 47.013,322.783 39.518,327.665 31.592,334.206 C 24.656,341.72 18.653,350.108 13.334,359.72 C 9.117,370.035 6.348,379.832 4.067,397.88 L 4.115,428.696" data-line="nan" stroke-width="45.0" fill="none" stroke="rgb(255, 255, 255)"/><path d="M 1001.379815589222,940.420583984406 A 110.88281350645376,110.88281350645376 0 0,1 897.7475238643212,982.789662352572" data-line="0.0" stroke-width="45.0" fill="none" stroke="rgb(255, 255, 255)"/><path d="M 651.598,207.844 L 640.374,192.187" data-line="3.0" stroke-width="45.0" fill="none" stroke="rgb(255, 255, 255)"/><path d="M 651.598,207.844 L 649.746,316.997" data-line="4.0" stroke-width="45.0" fill="none" stroke="rgb(255, 255, 255)"/><path d="M 781.59,193.608 L 771.167,209.121" data-line="15.0" stroke-width="45.0" fill="none" stroke="rgb(255, 255, 255)"/><path d="M 314.917,310.77 L 99.069,310.702" data-line="21.0" stroke-width="45.0" fill="none" stroke="rgb(255, 255, 255)"/><path d="M 237.537,445.301 L 160.829,445.438" data-line="23.0" stroke-width="45.0" fill="none" stroke="rgb(255, 255, 255)"/><path d="M 250.399,576.929 L 161.281,577.124" data-line="25.0" stroke-width="45.0" fill="none" stroke="rgb(255, 255, 255)"/><path d="M 643.58,576.163 L 530.386,575.567" data-line="28.0" stroke-width="45.0" fill="none" stroke="rgb(255, 255, 255)"/><path d="M 530.386,575.567 L 525.07,453.313" data-line="29.0" stroke-width="45.0" fill="none" stroke="rgb(255, 255, 255)"/><path d="M 262.091,720.845 L 261.941,803.348" data-line="31.0" stroke-width="45.0" fill="none" stroke="rgb(255, 255, 255)"/><path d="M 549.131,827.99 L 626.426,827.906" data-line="34.0" stroke-width="45.0" fill="none" stroke="rgb(255, 255, 255)"/><path d="M 629.279,696.924 L 538.43,697.477" data-line="36.0" stroke-width="45.0" fill="none" stroke="rgb(255, 255, 255)"/><path d="M 886.797,576.462 L 778.903,575.812" data-line="37.0" stroke-width="45.0" fill="none" stroke="rgb(255, 255, 255)"/><path d="M 778.903,575.812 L 773.587,453.856" data-line="38.0" stroke-width="45.0" fill="none" stroke="rgb(255, 255, 255)"/><path d="M 771.022,803.169 L 771.057,721.023" data-line="38.0" stroke-width="45.0" fill="none" stroke="rgb(255, 255, 255)"/><path d="M 1019.625,258.854 L 1019.79,430.253" data-line="44.0" stroke-width="45.0" fill="none" stroke="rgb(255, 255, 255)"/><path d="M 141.907,817.67 L 145.488,824.788" data-line="46.0" stroke-width="45.0" fill="none" stroke="rgb(255, 255, 255)"/><path d="M 1019.568,507.286 L 1019.639,824.965" data-line="46.0" stroke-width="45.0" fill="none" stroke="rgb(255, 255, 255)"/><path d="M 534.293,701.942 L 538.43,697.477" data-line="49.0" stroke-width="45.0" fill="none" stroke="rgb(255, 255, 255)"/><path d="M 895.526,813.057 L 894.228,707.312" data-line="52.0" stroke-width="45.0" fill="none" stroke="rgb(255, 255, 255)"/><path d="M 897.63,983.617 L 508.097,983.625" data-line="53.0" stroke-width="45.0" fill="none" stroke="rgb(255, 255, 255)"/><path d="M 396.213,857.524 L 396.379,145.089" data-line="55.0" stroke-width="45.0" fill="none" stroke="rgb(255, 255, 255)"/><path d="M 567.894,40.501 L 901.047,40.445" data-line="57.0" stroke-width="45.0" fill="none" stroke="rgb(255, 255, 255)"/><path d="M 4.115,428.696 L 4.364,884.859" data-line="61.0" stroke-width="45.0" fill="none" stroke="rgb(255, 255, 255)"/><path d="M 4.726270225946465,884.8855169577635 A 86.5641223786277,86.5641223786277 0 0,0 109.07002799017145,975.8745562649056" data-line="62.0" stroke-width="45.0" fill="none" stroke="rgb(255, 255, 255)"/><path d="M 109.319,977.045 L 314.917,976.805" data-line="63.0" stroke-width="45.0" fill="none" stroke="rgb(255, 255, 255)"/></g></svg>