<svg xmlns="http://www.w3.org/2000/svg" width="1024" height="1024" viewBox="-16.643999099731445 -40.66862773895264 1057.4559936523438 1105.3187866210938" class="colorable-icon reset-top-left-margin" data-export-recolorable-svg="true" overflow="visible" xmlns:xlink="http://www.w3.org/1999/xlink" fill="rgb(0, 0, 0)" stroke="none"><g fill="none" stroke="url(&quot;#theme-accent-gradient-linear&quot;) rgb(129, 82, 225)" stroke-width="45" stroke-linecap="round" stroke-linejoin="round"><path d="M 321.998,585.579 C 395.84,600.186 449.552,612.997 495.484,624.945 C 557.589,643.779 619.743,666.043 677.904,690.835 C 740.669,721.499 790.65,748.608 834.12,773.569 L 886.683,805.053" data-line="nan" stroke-width="45.0" fill="none" stroke="url(&quot;#theme-accent-gradient-linear&quot;) rgb(129, 82, 225)"/><path d="M 441.618,938.774 C 445.373,957.363 444.597,971.468 441.778,981.243 C 439.474,986.341 432.907,996.306 424.154,1005.032 C 419.378,1008.566 409.366,1013.987 394.698,1018.569 C 380.755,1019.87 338.885,1019.966 324.952,1019.023 C 310.905,1015.909 296.382,1009.399 287.187,1003.026 C 282.949,999.166 271.927,985.57 265.104,971.096 L 257.181,943.132" data-line="nan" stroke-width="45.0" fill="none" stroke="url(&quot;#theme-accent-gradient-linear&quot;) rgb(129, 82, 225)"/><path d="M 886.683,805.053 C 900.755,812.497 914.371,817.928 922.514,819.714 C 931.632,820.214 941.257,819.723 952.074,817.099 C 959.765,813.753 969.818,807.459 977.278,800.779 C 982.962,794.0 988.11,785.217 992.488,774.573 C 994.895,764.414 995.619,757.224 995.812,722.399" data-line="nan" stroke-width="45.0" fill="none" stroke="url(&quot;#theme-accent-gradient-linear&quot;) rgb(129, 82, 225)"/><path d="M 995.809,79.156 C 995.411,62.607 994.199,55.04 990.615,43.369 C 984.81,32.758 976.622,22.329 968.814,15.803 C 961.124,11.112 947.527,5.875 939.16,4.385 C 928.945,4.036 918.628,5.411 909.589,7.909 Q 895.848,14.35 849.541,41.32" data-line="nan" stroke-width="45.0" fill="none" stroke="url(&quot;#theme-accent-gradient-linear&quot;) rgb(129, 82, 225)"/><path d="M 849.541,41.32 C 784.031,79.048 700.183,123.29 657.976,141.622 C 592.78,166.806 499.275,197.13 424.673,216.234 C 391.957,223.2 354.707,229.598 322.253,234.233 L 294.126,236.118" data-line="nan" stroke-width="45.0" fill="none" stroke="url(&quot;#theme-accent-gradient-linear&quot;) rgb(129, 82, 225)"/><path d="M 156.157,236.411 C 141.798,236.796 130.495,238.161 118.567,240.712 C 108.577,243.954 98.326,248.203 88.461,253.613 C 77.443,261.283 68.284,269.09 59.964,277.772 C 51.996,288.187 46.037,297.675 39.02,311.287 C 31.653,332.133 29.932,341.386 28.356,357.236" data-line="nan" stroke-width="45.0" fill="none" stroke="url(&quot;#theme-accent-gradient-linear&quot;) rgb(129, 82, 225)"/><path d="M 28.424,464.482 C 30.268,480.285 33.069,493.735 36.806,505.304 C 42.49,518.065 50.855,532.161 57.903,541.417 C 66.852,550.965 78.781,560.989 89.067,567.779 C 102.963,574.779 114.026,579.0 125.721,582.021 C 135.007,583.57 161.126,585.346 191.013,585.297" data-line="nan" stroke-width="45.0" fill="none" stroke="url(&quot;#theme-accent-gradient-linear&quot;) rgb(129, 82, 225)"/><path d="M 348.683,589.61 L 441.618,938.774" data-line="0.0" stroke-width="45.0" fill="none" stroke="url(&quot;#theme-accent-gradient-linear&quot;) rgb(129, 82, 225)"/><path d="M 321.998,585.579 L 322.253,234.233" data-line="2.0" stroke-width="45.0" fill="none" stroke="url(&quot;#theme-accent-gradient-linear&quot;) rgb(129, 82, 225)"/><path d="M 257.181,943.132 L 161.126,585.346" data-line="4.0" stroke-width="45.0" fill="none" stroke="url(&quot;#theme-accent-gradient-linear&quot;) rgb(129, 82, 225)"/><path d="M 191.013,585.297 L 321.998,585.579" data-line="4.0" stroke-width="45.0" fill="none" stroke="url(&quot;#theme-accent-gradient-linear&quot;) rgb(129, 82, 225)"/><path d="M 995.812,722.399 L 995.809,79.156" data-line="6.0" stroke-width="45.0" fill="none" stroke="url(&quot;#theme-accent-gradient-linear&quot;) rgb(129, 82, 225)"/><path d="M 294.126,236.118 L 156.157,236.411" data-line="10.0" stroke-width="45.0" fill="none" stroke="url(&quot;#theme-accent-gradient-linear&quot;) rgb(129, 82, 225)"/><path d="M 28.356,357.236 L 28.424,464.482" data-line="12.0" stroke-width="45.0" fill="none" stroke="url(&quot;#theme-accent-gradient-linear&quot;) rgb(129, 82, 225)"/></g></svg>