<svg xmlns="http://www.w3.org/2000/svg" width="1024" height="1024" viewBox="47.38298034667969 -41 929.3629760742188 1106" class="colorable-icon reset-top-left-margin" data-export-recolorable-svg="true" overflow="visible" xmlns:xlink="http://www.w3.org/1999/xlink" fill="rgb(0, 0, 0)" stroke="none"><g fill="none" stroke="url(&quot;#theme-accent-gradient-linear&quot;) rgb(129, 82, 225)" stroke-width="45" stroke-linecap="round" stroke-linejoin="round"><path d="M 512.522,4.0 C 494.94,14.215 467.426,33.697 443.771,49.192 C 408.845,69.647 362.915,92.353 316.492,111.109 C 268.225,126.511 219.103,138.182 168.84,146.419 L 98.624,153.865" data-line="nan" stroke-width="45.0" fill="none" stroke="url(&quot;#theme-accent-gradient-linear&quot;) rgb(129, 82, 225)"/><path d="M 927.083,154.921 C 907.164,151.936 849.236,145.68 803.88,138.012 C 777.277,132.182 749.408,124.942 702.591,109.771 C 676.766,99.764 653.224,89.566 629.179,78.022 C 605.85,65.637 573.247,45.976 512.522,4.0" data-line="nan" stroke-width="45.0" fill="none" stroke="url(&quot;#theme-accent-gradient-linear&quot;) rgb(129, 82, 225)"/><path d="M 524.019,1013.631 C 540.982,1003.578 571.896,983.235 620.724,947.573 C 668.223,908.364 711.284,868.097 747.632,829.391 C 779.165,790.605 794.766,769.16 810.559,745.676 C 837.187,700.621 860.663,653.434 870.613,630.472 C 880.44,605.17 895.845,557.888 909.072,504.995 C 919.321,448.248 927.324,384.311 930.931,328.401 L 931.746,261.666" data-line="nan" stroke-width="45.0" fill="none" stroke="url(&quot;#theme-accent-gradient-linear&quot;) rgb(129, 82, 225)"/><path d="M 931.371,188.612 Q 930.512,171.658 927.083,154.921" data-line="nan" stroke-width="45.0" fill="none" stroke="url(&quot;#theme-accent-gradient-linear&quot;) rgb(129, 82, 225)"/><path d="M 93.909,169.661 C 92.875,178.715 92.253,206.644 92.406,268.743 C 93.525,318.274 95.269,350.965 98.139,385.324 C 101.793,418.095 106.693,452.508 118.605,515.381 C 125.231,542.383 133.06,569.909 140.878,593.962 C 150.679,620.669 161.138,645.844 174.643,674.893 C 187.458,699.894 202.141,725.939 218.098,751.599 C 234.709,775.897 252.008,799.138 270.292,821.812 C 290.232,844.668 311.622,867.324 334.952,890.185 C 358.559,911.603 384.245,933.284 410.286,953.794 C 444.494,978.791 472.307,997.31 493.833,1011.105 L 511.375,1020.0" data-line="nan" stroke-width="45.0" fill="none" stroke="url(&quot;#theme-accent-gradient-linear&quot;) rgb(129, 82, 225)"/><path d="M 511.375,1020.0 L 521.8,1014.503" data-line="2.0" stroke-width="45.0" fill="none" stroke="url(&quot;#theme-accent-gradient-linear&quot;) rgb(129, 82, 225)"/><path d="M 521.8,1014.503 L 524.019,1013.631" data-line="3.0" stroke-width="45.0" fill="none" stroke="url(&quot;#theme-accent-gradient-linear&quot;) rgb(129, 82, 225)"/><path d="M 98.624,153.865 L 93.909,169.661" data-line="5.0" stroke-width="45.0" fill="none" stroke="url(&quot;#theme-accent-gradient-linear&quot;) rgb(129, 82, 225)"/><path d="M 931.746,261.666 L 931.371,188.612" data-line="6.0" stroke-width="45.0" fill="none" stroke="url(&quot;#theme-accent-gradient-linear&quot;) rgb(129, 82, 225)"/></g></svg>