<svg xmlns="http://www.w3.org/2000/svg" width="1024" height="1024" viewBox="-40.89400005340576 93.22906494140625 1104.9166870117188 837.5489501953125" class="colorable-icon reset-top-left-margin" data-export-recolorable-svg="true" overflow="visible" xmlns:xlink="http://www.w3.org/1999/xlink" fill="rgb(0, 0, 0)" stroke="none"><g fill="none" stroke="url(&quot;#theme-accent-gradient-linear&quot;) rgb(129, 82, 225)" stroke-width="45" stroke-linecap="round" stroke-linejoin="round"><path d="M 72.247,153.794 C 79.426,165.985 82.524,175.945 95.737,263.277 C 104.074,304.746 113.517,344.715 121.824,372.329 Q 128.623,389.958 140.432,414.719" data-line="nan" stroke-width="45.0" fill="none" stroke="url(&quot;#theme-accent-gradient-linear&quot;) rgb(129, 82, 225)"/><path d="M 8.376,159.673 C 5.844,169.621 4.191,194.158 4.106,213.175 L 5.461,242.355" data-line="nan" stroke-width="45.0" fill="none" stroke="url(&quot;#theme-accent-gradient-linear&quot;) rgb(129, 82, 225)"/><path d="M 10.931,319.909 C 15.943,368.538 21.641,405.049 34.926,463.223 L 46.41,501.959" data-line="nan" stroke-width="45.0" fill="none" stroke="url(&quot;#theme-accent-gradient-linear&quot;) rgb(129, 82, 225)"/><path d="M 153.21,373.587 C 160.532,367.589 170.087,362.623 181.633,359.902 C 189.155,359.852 200.549,362.255 208.25,365.327 Q 215.645,369.744 224.98,378.117" data-line="nan" stroke-width="45.0" fill="none" stroke="url(&quot;#theme-accent-gradient-linear&quot;) rgb(129, 82, 225)"/><path d="M 380.534,535.484 L 402.726,561.302" data-line="nan" stroke-width="45.0" fill="none" stroke="url(&quot;#theme-accent-gradient-linear&quot;) rgb(129, 82, 225)"/><path d="M 1017.664,167.474 C 1019.819,196.718 1019.587,225.842 1015.688,293.856 C 1009.32,361.83 1005.598,390.962 1000.138,420.082 C 989.478,463.927 979.54,497.864 970.542,522.261 C 959.519,546.509 948.034,566.585 937.957,580.901 C 914.129,609.688 892.887,633.774 800.22,730.797 C 792.732,740.28 786.885,750.193 781.091,764.813 C 778.959,774.408 777.972,784.11 777.908,885.592" data-line="nan" stroke-width="45.0" fill="none" stroke="url(&quot;#theme-accent-gradient-linear&quot;) rgb(129, 82, 225)"/><path d="M 101.471,599.524 C 124.096,625.125 164.55,668.786 227.817,734.326 C 234.579,743.908 240.844,756.321 244.755,768.676 L 246.553,781.159" data-line="nan" stroke-width="45.0" fill="none" stroke="url(&quot;#theme-accent-gradient-linear&quot;) rgb(129, 82, 225)"/><path d="M 72.247,153.794 L 69.957,151.196" data-line="1.0" stroke-width="45.0" fill="none" stroke="url(&quot;#theme-accent-gradient-linear&quot;) rgb(129, 82, 225)"/><path d="M 69.957,151.196 L 67.277,148.763" data-line="2.0" stroke-width="45.0" fill="none" stroke="url(&quot;#theme-accent-gradient-linear&quot;) rgb(129, 82, 225)"/><path d="M 67.277,148.763 Q 63.719500070071746,145.83799997689377 59.8,143.533" data-line="3.0" stroke-width="45.0" fill="none" stroke="url(&quot;#theme-accent-gradient-linear&quot;) rgb(129, 82, 225)"/><path d="M 59.8,143.533 L 55.867,141.486" data-line="4.0" stroke-width="45.0" fill="none" stroke="url(&quot;#theme-accent-gradient-linear&quot;) rgb(129, 82, 225)"/><path d="M 55.867,141.486 L 52.563,140.222" data-line="5.0" stroke-width="45.0" fill="none" stroke="url(&quot;#theme-accent-gradient-linear&quot;) rgb(129, 82, 225)"/><path d="M 52.563,140.222 L 49.277,139.298" data-line="6.0" stroke-width="45.0" fill="none" stroke="url(&quot;#theme-accent-gradient-linear&quot;) rgb(129, 82, 225)"/><path d="M 49.277,139.298 Q 46.03900027231829,138.6340002048254 43.497,138.334" data-line="7.0" stroke-width="45.0" fill="none" stroke="url(&quot;#theme-accent-gradient-linear&quot;) rgb(129, 82, 225)"/><path d="M 43.49861989371394,138.30886455878667 A 38.545884811561294,38.545884811561294 0 0,0 27.532912467755686,140.6654752954489" data-line="8.0" stroke-width="45.0" fill="none" stroke="url(&quot;#theme-accent-gradient-linear&quot;) rgb(129, 82, 225)"/><path d="M 27.529,140.655 Q 25.222999994751323,141.5754999976635 22.889,142.834" data-line="9.0" stroke-width="45.0" fill="none" stroke="url(&quot;#theme-accent-gradient-linear&quot;) rgb(129, 82, 225)"/><path d="M 22.889,142.834 Q 20.316999997887446,144.31399999797185 18.065,146.118" data-line="10.0" stroke-width="45.0" fill="none" stroke="url(&quot;#theme-accent-gradient-linear&quot;) rgb(129, 82, 225)"/><path d="M 18.065000000121643,146.1180000001502 A 36.66278503757852,36.66278503757852 0 0,0 13.567000000143132,150.44400000012544" data-line="11.0" stroke-width="45.0" fill="none" stroke="url(&quot;#theme-accent-gradient-linear&quot;) rgb(129, 82, 225)"/><path d="M 13.567,150.444 L 11.606,153.04" data-line="12.0" stroke-width="45.0" fill="none" stroke="url(&quot;#theme-accent-gradient-linear&quot;) rgb(129, 82, 225)"/><path d="M 11.606,153.04 L 9.961,155.969" data-line="13.0" stroke-width="45.0" fill="none" stroke="url(&quot;#theme-accent-gradient-linear&quot;) rgb(129, 82, 225)"/><path d="M 9.961,155.969 L 8.376,159.673" data-line="14.0" stroke-width="45.0" fill="none" stroke="url(&quot;#theme-accent-gradient-linear&quot;) rgb(129, 82, 225)"/><path d="M 140.432,414.719 L 258.245,563.925" data-line="16.0" stroke-width="45.0" fill="none" stroke="url(&quot;#theme-accent-gradient-linear&quot;) rgb(129, 82, 225)"/><path d="M 447.456,885.778 L 246.177,885.693" data-line="18.0" stroke-width="45.0" fill="none" stroke="url(&quot;#theme-accent-gradient-linear&quot;) rgb(129, 82, 225)"/><path d="M 153.21,373.587 L 128.623,389.958" data-line="22.0" stroke-width="45.0" fill="none" stroke="url(&quot;#theme-accent-gradient-linear&quot;) rgb(129, 82, 225)"/><path d="M 1017.664,167.474 L 1016.417,162.513" data-line="24.0" stroke-width="45.0" fill="none" stroke="url(&quot;#theme-accent-gradient-linear&quot;) rgb(129, 82, 225)"/><path d="M 1016.417,162.513 L 1014.394,157.601" data-line="25.0" stroke-width="45.0" fill="none" stroke="url(&quot;#theme-accent-gradient-linear&quot;) rgb(129, 82, 225)"/><path d="M 1014.394,157.601 L 1011.504,152.84" data-line="26.0" stroke-width="45.0" fill="none" stroke="url(&quot;#theme-accent-gradient-linear&quot;) rgb(129, 82, 225)"/><path d="M 1011.504,152.84 L 1007.735,148.566" data-line="27.0" stroke-width="45.0" fill="none" stroke="url(&quot;#theme-accent-gradient-linear&quot;) rgb(129, 82, 225)"/><path d="M 1007.735,148.566 L 1003.289,144.915" data-line="28.0" stroke-width="45.0" fill="none" stroke="url(&quot;#theme-accent-gradient-linear&quot;) rgb(129, 82, 225)"/><path d="M 1003.289,144.915 L 998.413,142.124" data-line="29.0" stroke-width="45.0" fill="none" stroke="url(&quot;#theme-accent-gradient-linear&quot;) rgb(129, 82, 225)"/><path d="M 998.413,142.124 L 993.427,140.149" data-line="30.0" stroke-width="45.0" fill="none" stroke="url(&quot;#theme-accent-gradient-linear&quot;) rgb(129, 82, 225)"/><path d="M 993.427,140.149 L 988.533,139.02" data-line="31.0" stroke-width="45.0" fill="none" stroke="url(&quot;#theme-accent-gradient-linear&quot;) rgb(129, 82, 225)"/><path d="M 988.533,139.02 L 983.983,138.541" data-line="32.0" stroke-width="45.0" fill="none" stroke="url(&quot;#theme-accent-gradient-linear&quot;) rgb(129, 82, 225)"/><path d="M 983.983,138.541 L 980.063,138.558" data-line="33.0" stroke-width="45.0" fill="none" stroke="url(&quot;#theme-accent-gradient-linear&quot;) rgb(129, 82, 225)"/><path d="M 980.0629068112665,138.5560667386299 A 34.07424841395924,34.07424841395924 0 0,0 962.1736364476703,144.66876935808384" data-line="34.0" stroke-width="45.0" fill="none" stroke="url(&quot;#theme-accent-gradient-linear&quot;) rgb(129, 82, 225)"/><path d="M 962.171,144.665 L 959.426,146.774" data-line="35.0" stroke-width="45.0" fill="none" stroke="url(&quot;#theme-accent-gradient-linear&quot;) rgb(129, 82, 225)"/><path d="M 959.426,146.774 L 956.167,149.767" data-line="36.0" stroke-width="45.0" fill="none" stroke="url(&quot;#theme-accent-gradient-linear&quot;) rgb(129, 82, 225)"/><path d="M 956.167,149.767 Q 952.6419999297043,153.4014995427061 949.801,157.19" data-line="37.0" stroke-width="45.0" fill="none" stroke="url(&quot;#theme-accent-gradient-linear&quot;) rgb(129, 82, 225)"/><path d="M 949.8010000001283,157.19000000009348 A 51.17837823806517,51.17837823806517 0 0,0 945.9130000001882,163.41800000009943" data-line="38.0" stroke-width="45.0" fill="none" stroke="url(&quot;#theme-accent-gradient-linear&quot;) rgb(129, 82, 225)"/><path d="M 945.913,163.418 L 894.524,396.953" data-line="39.0" stroke-width="45.0" fill="none" stroke="url(&quot;#theme-accent-gradient-linear&quot;) rgb(129, 82, 225)"/><path d="M 777.908,885.592 L 576.538,885.683" data-line="40.0" stroke-width="45.0" fill="none" stroke="url(&quot;#theme-accent-gradient-linear&quot;) rgb(129, 82, 225)"/><path d="M 808.156,370.583 L 646.894,532.861" data-line="41.0" stroke-width="45.0" fill="none" stroke="url(&quot;#theme-accent-gradient-linear&quot;) rgb(129, 82, 225)"/><path d="M 808.156,370.583 L 812.936,367.392" data-line="42.0" stroke-width="45.0" fill="none" stroke="url(&quot;#theme-accent-gradient-linear&quot;) rgb(129, 82, 225)"/><path d="M 812.936,367.392 L 817.636,364.824" data-line="43.0" stroke-width="45.0" fill="none" stroke="url(&quot;#theme-accent-gradient-linear&quot;) rgb(129, 82, 225)"/><path d="M 817.636,364.824 L 822.397,362.826" data-line="44.0" stroke-width="45.0" fill="none" stroke="url(&quot;#theme-accent-gradient-linear&quot;) rgb(129, 82, 225)"/><path d="M 822.397,362.826 L 827.111,361.375" data-line="45.0" stroke-width="45.0" fill="none" stroke="url(&quot;#theme-accent-gradient-linear&quot;) rgb(129, 82, 225)"/><path d="M 827.111,361.375 L 831.896,360.42" data-line="46.0" stroke-width="45.0" fill="none" stroke="url(&quot;#theme-accent-gradient-linear&quot;) rgb(129, 82, 225)"/><path d="M 831.896,360.42 L 836.628,359.962" data-line="47.0" stroke-width="45.0" fill="none" stroke="url(&quot;#theme-accent-gradient-linear&quot;) rgb(129, 82, 225)"/><path d="M 836.628,359.962 L 841.331,360.021" data-line="48.0" stroke-width="45.0" fill="none" stroke="url(&quot;#theme-accent-gradient-linear&quot;) rgb(129, 82, 225)"/><path d="M 841.331,360.021 L 846.083,360.617" data-line="49.0" stroke-width="45.0" fill="none" stroke="url(&quot;#theme-accent-gradient-linear&quot;) rgb(129, 82, 225)"/><path d="M 846.083,360.617 L 850.869,361.768" data-line="50.0" stroke-width="45.0" fill="none" stroke="url(&quot;#theme-accent-gradient-linear&quot;) rgb(129, 82, 225)"/><path d="M 850.869,361.768 L 855.887,363.619" data-line="51.0" stroke-width="45.0" fill="none" stroke="url(&quot;#theme-accent-gradient-linear&quot;) rgb(129, 82, 225)"/><path d="M 855.887,363.619 L 860.822,366.156" data-line="52.0" stroke-width="45.0" fill="none" stroke="url(&quot;#theme-accent-gradient-linear&quot;) rgb(129, 82, 225)"/><path d="M 860.822,366.156 L 894.524,396.953" data-line="53.0" stroke-width="45.0" fill="none" stroke="url(&quot;#theme-accent-gradient-linear&quot;) rgb(129, 82, 225)"/><path d="M 765.788,563.197 L 894.524,396.953" data-line="54.0" stroke-width="45.0" fill="none" stroke="url(&quot;#theme-accent-gradient-linear&quot;) rgb(129, 82, 225)"/><path d="M 46.71984155548333,501.86660547905484 A 256.2974009235934,256.2974009235934 0 0,0 101.39075544409033,599.5958523366256" data-line="55.0" stroke-width="45.0" fill="none" stroke="url(&quot;#theme-accent-gradient-linear&quot;) rgb(129, 82, 225)"/><path d="M 5.461,242.355 L 10.931,319.909" data-line="55.0" stroke-width="45.0" fill="none" stroke="url(&quot;#theme-accent-gradient-linear&quot;) rgb(129, 82, 225)"/><path d="M 402.98986569092017,561.088469355112 A 200.04958984199212,200.04958984199212 0 0,1 446.5659831664459,706.5518136747531" data-line="57.0" stroke-width="45.0" fill="none" stroke="url(&quot;#theme-accent-gradient-linear&quot;) rgb(129, 82, 225)"/><path d="M 447.471,706.641 L 447.456,885.778" data-line="58.0" stroke-width="45.0" fill="none" stroke="url(&quot;#theme-accent-gradient-linear&quot;) rgb(129, 82, 225)"/><path d="M 224.98,378.117 L 380.534,535.484" data-line="58.0" stroke-width="45.0" fill="none" stroke="url(&quot;#theme-accent-gradient-linear&quot;) rgb(129, 82, 225)"/><path d="M 646.894,532.861 C 579.0075287618499,597.7706368935233 573.547427208726,660.8621269996744 576.643,725.813" data-line="59.0" stroke-width="45.0" fill="none" stroke="url(&quot;#theme-accent-gradient-linear&quot;) rgb(129, 82, 225)"/><path d="M 576.643,725.813 L 576.538,885.683" data-line="60.0" stroke-width="45.0" fill="none" stroke="url(&quot;#theme-accent-gradient-linear&quot;) rgb(129, 82, 225)"/><path d="M 246.553,781.159 L 246.177,885.693" data-line="62.0" stroke-width="45.0" fill="none" stroke="url(&quot;#theme-accent-gradient-linear&quot;) rgb(129, 82, 225)"/></g></svg>